<svg width="24" viewBox="0 0 512 406" aria-hidden="true" role="img" xmlns="http://www.w3.org/2000/svg">
    <path 
        d="M167 302h270c6.7 0 12.6-4.4 14.4-10.9l60-210c1.3-4.5.4-9.4-2.4-13.2-2.8-3.8-7.3-6-12-6H130.4l-10.7-48.3C118.1 6.9 112 2 105 2H15C6.7 2 0 8.7 0 17s6.7 15 15 15h78c1.9 8.6 51.4 230.9 54.2 243.7 4.2 19.8 13.4 26.3 19.8 26.3zM475.1 93.1l-50.8 177.8H178.6L139.1 93.1h336z"
    ></path>
    <circle cx="405.6" cy="360.3" r="39.9"></circle>
    <circle cx="198.9" cy="360.3" r="39.9"></circle>
</svg>