<?xml version="1.0" encoding="UTF-8" ?>
<!DOCTYPE svg PUBLIC "-//W3C//DTD SVG 1.1//EN" "http://www.w3.org/Graphics/SVG/1.1/DTD/svg11.dtd">
<svg width="506pt" height="522pt" viewBox="0 0 506 522" version="1.1" xmlns="http://www.w3.org/2000/svg">
<g id="#ffffffff">
</g>
<g id="#614e48ff">
<path fill="#614e48" opacity="1.00" d=" M 77.07 1.18 C 90.22 -0.99 103.96 1.93 115.38 8.72 C 126.33 15.26 134.67 25.61 139.87 37.16 C 147.08 52.98 148.84 70.90 146.64 88.04 C 142.96 115.95 127.72 142.35 104.75 158.77 C 91.84 167.99 76.10 173.96 60.08 173.26 C 44.85 172.64 30.02 165.56 19.95 154.12 C 7.50 140.20 1.86 121.38 1.04 102.99 C 0.21 76.11 10.11 49.05 28.18 29.12 C 40.93 14.96 58.04 4.15 77.07 1.18 Z" />
<path fill="#614e48" opacity="1.00" d=" M 276.04 2.17 C 294.06 0.89 312.45 5.50 327.64 15.28 C 346.33 27.11 359.88 46.12 366.58 67.06 C 375.19 93.34 374.09 122.45 364.47 148.30 C 355.00 172.29 338.42 193.70 316.61 207.69 C 296.47 220.61 271.82 227.24 247.96 223.60 C 226.83 220.37 207.20 208.87 193.72 192.32 C 177.48 172.46 169.88 146.42 170.28 120.96 C 170.50 96.31 178.77 72.06 192.74 51.84 C 211.22 24.01 242.50 4.45 276.04 2.17 Z" />
<path fill="#614e48" opacity="1.00" d=" M 433.60 145.89 C 450.27 142.99 468.10 147.97 480.80 159.14 C 492.52 169.39 499.73 184.02 502.87 199.11 C 510.01 232.61 498.34 269.01 473.97 292.90 C 459.89 306.81 441.12 317.11 421.00 317.61 C 406.49 318.16 391.91 312.66 381.31 302.74 C 369.82 292.11 362.95 277.26 360.07 262.04 C 355.75 238.77 360.08 214.17 371.46 193.48 C 384.33 170.04 406.71 150.47 433.60 145.89 Z" />
<path fill="#614e48" opacity="1.00" d=" M 139.10 233.19 C 171.78 230.59 205.05 237.83 234.01 253.11 C 262.01 268.46 286.17 291.32 301.69 319.35 C 313.96 341.42 320.96 366.62 320.45 391.95 C 320.17 420.01 310.38 447.90 293.14 470.05 C 272.08 497.23 239.72 514.42 205.98 519.59 C 199.99 520.34 193.99 521.71 187.93 521.03 C 181.65 521.01 175.34 520.70 169.09 521.41 C 123.45 518.14 78.80 498.13 47.06 464.96 C 25.67 442.59 10.42 413.79 6.54 382.89 C 2.63 353.42 9.75 322.77 25.84 297.81 C 40.99 274.01 64.03 255.67 90.02 244.95 C 105.61 238.42 122.27 234.59 139.10 233.19 Z" />
</g>
</svg>
